<svg width="512" height="512" viewBox="0 0 512 512" xmlns="http://www.w3.org/2000/svg">
  <rect width="512" height="512" rx="120" fill="#4F6F38"/>
  <circle cx="256" cy="278" r="118" fill="#F7F3EA"/>
  <path d="M256 340C256 245 300 177 374 139C370 229 329 298 256 340Z" fill="#7A8F5A"/>
  <path d="M256 340C256 245 212 177 138 139C142 229 183 298 256 340Z" fill="#A6B77A"/>
  <path d="M256 356C256 280 256 220 256 160" stroke="#4F6F38" stroke-width="24" stroke-linecap="round"/>
  <path d="M201 289C225 298 242 316 256 340" stroke="#4F6F38" stroke-width="18" stroke-linecap="round"/>
  <path d="M311 289C287 298 270 316 256 340" stroke="#4F6F38" stroke-width="18" stroke-linecap="round"/>
</svg>